<?xml version="1.0" encoding="UTF-8" standalone="no"?><!DOCTYPE svg PUBLIC "-//W3C//DTD SVG 1.1//EN" "http://www.w3.org/Graphics/SVG/1.1/DTD/svg11.dtd"><svg width="100%" height="100%" viewBox="0 0 430 157" version="1.1" xmlns="http://www.w3.org/2000/svg" xmlns:xlink="http://www.w3.org/1999/xlink" xml:space="preserve" xmlns:serif="http://www.serif.com/" style="fill-rule:evenodd;clip-rule:evenodd;stroke-linejoin:round;stroke-miterlimit:1.41421;"><rect id="Logo---Light" serif:id="Logo - Light" x="0" y="0" width="430" height="157" style="fill:none;"/><g><g><g><path d="M99.449,118.286c7.763,0 14.066,5.588 14.066,12.47c0,6.882 -6.303,12.469 -14.066,12.469c-7.763,0 -14.066,-5.587 -14.066,-12.469c0,-6.882 6.303,-12.47 14.066,-12.47Zm0,2.477c6.221,0 11.272,4.478 11.272,9.993c0,5.515 -5.051,9.992 -11.272,9.992c-6.221,0 -11.272,-4.477 -11.272,-9.992c0,-5.515 5.051,-9.993 11.272,-9.993Z" style="fill:#fff;"/><path d="M118.401,19.806l12.74,-13.459l1.992,1.482l-12.481,13.185l-0.284,94.082l-0.579,-0.001l0,0.002l-110.089,0l0,-2.306l108.075,0l0.277,-92.104l0.002,-0.514l0.347,-0.367Z" style="fill:#fff;"/><path d="M24.897,118.286c7.764,0 14.067,5.588 14.067,12.47c0,6.882 -6.303,12.469 -14.067,12.469c-7.763,0 -14.066,-5.587 -14.066,-12.469c0,-6.882 6.303,-12.47 14.066,-12.47Zm0,2.477c6.222,0 11.273,4.478 11.273,9.993c0,5.515 -5.051,9.992 -11.273,9.992c-6.221,0 -11.272,-4.477 -11.272,-9.992c0,-5.515 5.051,-9.993 11.272,-9.993Z" style="fill:#fff;"/></g><path d="M102.181,25.259c4.28,0.001 7.754,3.081 7.754,6.874l0,68.25c0,3.794 -3.474,6.874 -7.754,6.874l-75.733,0c-4.28,0 -7.755,-3.08 -7.755,-6.874l0,-68.25c0,-3.793 3.475,-6.873 7.755,-6.874l75.733,0Zm-0.829,4.027l-74.092,0c-2.256,0 -4.086,1.623 -4.086,3.622l0,66.685c0,2 1.831,3.623 4.086,3.623l74.092,0c2.255,0 4.086,-1.623 4.086,-3.623l0,-66.685c0,-1.999 -1.83,-3.622 -4.086,-3.622Z" style="fill:#f39c12;"/></g><text x="148.876px" y="111.927px" style="font-family:'Raleway-Thin', 'Raleway', sans-serif;font-weight:250;font-size:108.874px;fill:#fff;">K<tspan x="212.35px " y="111.927px ">O</tspan>LL</text></g></svg>